<svg xmlns="http://www.w3.org/2000/svg" viewBox="0 0 1050 835" width="1050" height="835"><title>4804442-ai</title><defs><clipPath id="cp1"><path d="m143.68 399.64c0 5.71-4.63 10.34-10.34 10.34-5.72.0-10.35-4.63-10.35-10.34s4.63-10.35 10.35-10.35c5.71.0 10.34 4.64 10.34 10.35z"/></clipPath><clipPath id="cp2"><path d="m143.68 444.72c0 5.72-4.63 10.35-10.34 10.35-5.72.0-10.35-4.63-10.35-10.35.0-5.71 4.63-10.34 10.35-10.34 5.71.0 10.34 4.63 10.34 10.34z"/></clipPath><clipPath id="cp3"><path d="m534.96 95.71v68.12c0 4.22-3.43 7.65-7.65 7.65h-35.04c-4.23.0-7.66-3.43-7.66-7.65V95.71c0-4.23 3.43-7.66 7.66-7.66h35.04c4.22.0 7.65 3.43 7.65 7.66z"/></clipPath></defs><style>tspan { white-space:pre } .s0 { fill: none;stroke: #0024a8;stroke-width: 2.1;stroke-dasharray: 6 } .s1 { fill: none;stroke: #0024a8;stroke-width: 2.1;stroke-dasharray: 6,6 } .s2 { fill: #4779f6 } .s3 { fill: #072bdb } .s4 { fill: #0024a8 } .s5 { fill: #054ddd } .s6 { fill: #130751 } .s7 { fill: #b6ceff } .s8 { fill: #e4eafe } .s9 { opacity: .2;fill: #ffffff } .s10 { fill: #fca232 } .s11 { fill: #f98816 } .t12 { font-size: 21px;fill: #fbfffd;font-weight: 900;font-family: "Montserrat-Black", "Montserrat" } .s13 { fill: #ffffff } .s14 { fill: #ffb564 }</style><g id="OBJECTS"><g id="&lt;Group>"><path id="&lt;Path>" class="s0" d="m229.2 487.4H96.7v-201h106.6V128.3v-26.7h637.4v60.1"/><g id="&lt;Group>"><g id="&lt;Group>"><path id="&lt;Path>" class="s0" d="m152 609.4v-3.2"/><path id="&lt;Path>" class="s1" d="m152 600.2v-69.6"/><path id="&lt;Path>" class="s1" d="m148.8 524.4h3.2v3.2"/><path id="&lt;Path>" class="s1" d="m142.8 524.4H48.9"/><path id="&lt;Path>" class="s1" d="m45.9 524.4h-3.2v-3.2"/><path id="&lt;Path>" class="s1" d="m42.7 514.7V414.1"/><path id="&lt;Path>" class="s1" d="m42.7 410.9v-3.2h3.2"/><path id="&lt;Path>" class="s1" d="m52 407.7h120.4"/><path id="&lt;Path>" class="s1" d="m178.7 404.5v3.2h-3.2"/><path id="&lt;Path>" class="s1" d="m178.7 398.2V136.1"/><path id="&lt;Path>" class="s1" d="m178.7 133v-3.2h3.2"/><path id="&lt;Path>" class="s1" d="m188.3 129.8h216"/><path id="&lt;Path>" class="s1" d="m410.7 126.6v3.2h-3.2"/><path id="&lt;Path>" class="s1" d="m410.7 120.3V60.4"/><path id="&lt;Path>" class="s1" d="m410.7 57.2V54h3.2"/><path id="&lt;Path>" class="s1" d="m420.3 54h99.4"/><path id="&lt;Path>" class="s1" d="m522.9 54h3.2v3.2"/><path id="&lt;Path>" class="s1" d="m526.1 63.8v63"/><path id="&lt;Path>" class="s1" d="m529.3 133.3h-3.2v-3.2"/><path id="&lt;Path>" class="s1" d="m535.8 133.3h100.3"/><path id="&lt;Path>" class="s1" d="m639.3 133.3h3.2v3.2"/><path id="&lt;Path>" class="s1" d="m642.5 143.8v11"/><path id="&lt;Path>" class="s1" d="m645.7 161.7h-3.2v-3.2"/><path id="&lt;Path>" class="s1" d="m651.9 161.7h182.5"/><path id="&lt;Path>" class="s1" d="m837.5 161.7h3.2v3.1"/><path id="&lt;Path>" class="s1" d="m840.7 170.7v31.9"/><path id="&lt;Path>" class="s1" d="m843.9 208.7h-3.2v-3.2"/><path id="&lt;Path>" class="s1" d="m850.6 208.7h90.9"/><path id="&lt;Path>" class="s1" d="m944.9 208.7h3.2v3.2"/><path id="&lt;Path>" class="s1" d="m948.1 218.4v87.4"/><path id="&lt;Path>" class="s1" d="m948.1 309v3.2h-3.2"/><path id="&lt;Path>" class="s1" d="m938 312.2h-66"/><path id="&lt;Path>" class="s1" d="m865.4 315.4v-3.2h3.2"/><path id="&lt;Path>" class="s1" d="m865.4 321.7v234.4"/><path id="&lt;Path>" class="s1" d="m865.4 559.2v3.2"/></g></g><g id="&lt;Group>"><path id="&lt;Path>" class="s2" d="m934.4 788H104.5v-31.1h829.9z"/><path id="&lt;Path>" class="s3" d="m934.4 756.9H104.5l105.4-110H829z"/></g><path id="&lt;Path>" class="s4" d="m821.9 704c0 15.8-137.1 28.6-306.3 28.6-169.1.0-306.2-12.8-306.2-28.6.0-15.9 137.1-28.7 306.2-28.7 169.2.0 306.3 12.8 306.3 28.7z"/><g id="&lt;Group>"><g id="&lt;Group>"><g id="&lt;Group>"><path id="&lt;Path>" class="s5" d="m583 603.4 14.8 91.6H441.1l13.2-91.6z"/><path id="&lt;Path>" class="s5" d="m652.3 714.8H386.6v-6.6h265.7z"/><path id="&lt;Path>" class="s2" d="m597.8 695 54.5 13.2H386.6l54.5-13.2z"/></g><g id="&lt;Group>"><path id="&lt;Path>" class="s6" d="m825.7 556.2H213.2V238.6c0-14 11.3-25.4 25.4-25.4h561.7c14 0 25.4 11.4 25.4 25.4z"/><path id="&lt;Path>" class="s2" d="m800.4 614.9H238.5c-14 0-25.3-11.3-25.3-25.2v-33.5h612.5v33.5c0 13.9-11.3 25.2-25.3 25.2z"/><path id="&lt;Path>" class="s7" d="m803.1 535H235.8V233h567.3z"/><path id="&lt;Path>" class="s6" d="m531.4 583.2c0 6.7-5.3 12-12 12-6.6.0-11.9-5.3-11.9-12 0-6.6 5.3-11.9 11.9-11.9 6.7.0 12 5.3 12 11.9z"/></g><g id="&lt;Group>"><g id="&lt;Group>"><path id="&lt;Path>" class="s2" d="m526.1 502H325.2V267.5h200.9z"/><path id="&lt;Path>" class="s8" d="m497.1 312.2H354.3v-12.7h142.8z"/><path id="&lt;Path>" class="s8" d="m497.1 335.7H354.3v-12.8h142.8z"/><path id="&lt;Path>" class="s8" d="m497.1 359.1H354.3v-12.8h142.8z"/><path id="&lt;Path>" class="s8" d="m497.1 382.6H354.3v-12.8h142.8z"/><path id="&lt;Path>" class="s8" d="m497.1 406H354.3v-12.8h142.8z"/><path id="&lt;Path>" class="s8" d="m497.1 429.5H354.3v-12.8h142.8z"/><path id="&lt;Path>" class="s8" d="m497.1 452.9H354.3v-12.8h142.8z"/><path id="&lt;Path>" class="s8" d="m497.1 476.4H354.3v-12.8h142.8z"/></g><g id="&lt;Group>"><path id="&lt;Compound Path>" fill-rule="evenodd" class="s6" d="m648.6 352.5c-1.2 4.7-3 9-5.5 12.9l9 9-14.4 14.5-9.1-9.1c-3.9 2.4-8.3 4.2-13 5.3v12.7h-20.4V385c-4.6-1.1-9-3-12.9-5.4l-9 9-14.4-14.5 9-9.1c-2.4-3.9-4.2-8.3-5.3-12.9h-12.7v-20.5h12.8c1.2-4.6 3-8.9 5.5-12.9l-9-9 14.4-14.4 9.1 9.1c4-2.5 8.3-4.3 13-5.3v-12.7h20.4v12.8c4.6 1.1 9 3 12.9 5.4l9-9 14.4 14.5-9 9c2.4 4 4.2 8.4 5.3 13h12.7v20.4zm-23.3-10.4c0-10.9-8.8-19.7-19.6-19.7-10.9.0-19.7 8.8-19.7 19.7.0 10.8 8.8 19.6 19.7 19.6 10.8.0 19.6-8.8 19.6-19.6z"/><path id="&lt;Compound Path>" fill-rule="evenodd" class="s6" d="m727.5 415.2c-.9 3.6-2.3 7.1-4.3 10.2l7.1 7-11.4 11.4-7.1-7.1c-3.1 1.9-6.6 3.3-10.2 4.1v10h-16.1v-10.1c-3.7-.8-7.1-2.3-10.2-4.2l-7 7.1-11.4-11.4 7.1-7.2c-1.9-3.1-3.3-6.5-4.1-10.2h-10.1v-16.1h10.1c.9-3.6 2.4-7 4.3-10.1l-7.1-7.1 11.4-11.4 7.1 7.2c3.2-1.9 6.6-3.3 10.3-4.2v-10h16v10.1c3.7.9 7.1 2.3 10.2 4.3l7.1-7.1 11.4 11.4-7.2 7.1c1.9 3.1 3.3 6.6 4.2 10.2h10v16.1zm-18.3-8.2c0-8.6-6.9-15.5-15.5-15.5-8.5.0-15.4 6.9-15.4 15.5.0 8.5 6.9 15.4 15.4 15.4 8.6.0 15.5-6.9 15.5-15.4z"/><path id="&lt;Compound Path>" fill-rule="evenodd" class="s6" d="m642.4 452.4c-.7 2.6-1.7 5-3.1 7.2l5.1 5-8.1 8.1-5.1-5c-2.2 1.3-4.6 2.3-7.2 2.9v7.1h-11.4v-7.2c-2.6-.6-5-1.6-7.2-3l-5.1 5-8-8 5-5.1c-1.3-2.2-2.3-4.6-2.9-7.2h-7.1v-11.5h7.1c.7-2.5 1.7-5 3.1-7.2l-5.1-5 8.1-8.1 5.1 5.1c2.2-1.3 4.6-2.3 7.2-2.9v-7.1h11.4v7.1c2.6.6 5 1.7 7.2 3l5.1-5 8 8.1-5 5.1c1.3 2.2 2.3 4.6 2.9 7.2h7.1v11.4zm-13-5.8c0-6.1-4.9-11-10.9-11-6.1.0-11 4.9-11 11 0 6 4.9 10.9 11 10.9 6 0 10.9-4.9 10.9-10.9z"/></g></g></g><path id="&lt;Path>" class="s9" d="m571.4 233-120.8 302H383l122-302z"/><path id="&lt;Path>" class="s9" d="m642.5 233-115.8 302h-27.1l113.8-302z"/></g><g id="&lt;Group>"><g id="&lt;Group>"><path id="&lt;Path>" class="s5" d="m715.3 169.3q-1.1.0-2.1-.5c-4.3-2.1-8.4-.1-8.6.0-2.3 1.1-5.1.2-6.3-2.1-1.1-2.3-.2-5.1 2.1-6.3.3-.2 8.4-4.2 16.9.0 2.3 1.1 3.3 3.9 2.2 6.2-.8 1.7-2.5 2.7-4.2 2.7z"/></g><g id="&lt;Group>"><path id="&lt;Path>" class="s5" d="m726.6 156.6c-.9.0-1.8-.3-2.7-.9-15-10.6-29.5-.2-29.6-.1-2.1 1.6-5 1.1-6.6-1-1.5-2-1-5 1-6.5 6.9-5.1 24.2-11.6 40.6-.1 2.1 1.5 2.7 4.4 1.2 6.6-.9 1.3-2.4 2-3.9 2z"/></g><g id="&lt;Group>"><path id="&lt;Path>" class="s5" d="m738 144.7c-1 0-2-.4-2.9-1-27.9-21.6-50.6-1.2-51.6-.3-1.9 1.8-4.8 1.7-6.6-.2-1.7-1.9-1.6-4.9.2-6.6.3-.3 29.5-26.9 63.8-.3 2 1.6 2.4 4.5.8 6.5-.9 1.2-2.3 1.9-3.7 1.9z"/></g></g><g id="&lt;Group>"><g id="&lt;Group>"><path id="&lt;Path>" class="s10" d="m913.5 208.7c0 40.2-32.6 72.8-72.8 72.8-40.2.0-72.8-32.6-72.8-72.8.0-40.2 32.6-72.7 72.8-72.7 40.2.0 72.8 32.5 72.8 72.7z"/><path id="&lt;Path>" class="s11" d="m891.2 261.1c-13.1 12.6-30.9 20.4-50.5 20.4-40.2.0-72.8-32.6-72.8-72.8.0-17.9 6.6-34.4 17.3-47 3.7 33 22.7 87.6 106 99.4z"/></g><text id="CMS" style="transform: matrix(2,0,0,2,787.992,221.313)"><tspan x="0" y="0" class="t12">CMS</tspan></text></g><g id="&lt;Group>"><path id="&lt;Compound Path>" fill-rule="evenodd" class="s2" d="m840.7 603.4c0-29.8 23.2-54.3 53-55.9h5.3c30.1 1.3 53.6 25.8 53.6 55.9S929.1 658 899 659.3h-5.3c-29.8-1.6-53-26.1-53-55.9zm46.5 50.7c-6.7-6-12-13.1-15.9-21.1-4 1.8-7.9 4-11.4 6.6 7.4 7.5 17 12.6 27.3 14.5zm7.3-26.5c-6.6.3-13 1.5-19.2 3.8 4.4 9 11 16.9 19.2 23.1zm0-20.2h-25.4c.4 7 1.9 13.7 4.5 20 6.7-2.4 13.7-3.8 20.9-4.1zm0-20.4c-7.6-.3-15-1.9-22-4.6-2.3 6.6-3.5 13.5-3.5 20.6h25.5zm39.6 51.9c-3.8-2.7-8-4.9-12.3-6.7-3.9 8.4-9.4 15.8-16.5 22 11-1.8 21.1-7.2 28.8-15.3zm14-31.6h-20.2c-.4 7.3-1.9 14.3-4.5 20.9 4.8 1.9 9.4 4.4 13.5 7.4 6.6-8.1 10.4-17.9 11.2-28.3zm-23.6-25.8c2.3 6.9 3.5 14.2 3.5 21.5h20.3c-.1-10.7-3.5-21-9.7-29.7-4.4 3.3-9.1 6-14.1 8.2zm-19.2-29c7.8 6.9 13.8 15.5 17.7 24.9 4.6-2 8.9-4.5 12.9-7.5-7.9-9.3-18.7-15.4-30.6-17.4zm-6.5 30.3c6.9-.2 13.7-1.4 20.2-3.8-4.2-10.3-11.2-19.3-20.2-26.3zm0 20.3h24.9c0-6.8-1.1-13.5-3.2-19.9-7 2.5-14.3 3.8-21.7 4zm0 20.1c7 .1 14 1.3 20.6 3.5 2.4-6.1 3.8-12.6 4.2-19.3h-24.8zm0 30.8c8.1-6.2 14.6-14.2 18.9-23.3-6.1-2-12.4-3-18.9-3.2zM874 578.3c6.6 2.6 13.4 4.1 20.5 4.4v-30.4c-9.1 6.8-16.1 15.8-20.5 26zm-15.9-9.1c3.7 2.9 7.7 5.4 12 7.4 3.8-9.1 9.7-17.3 17.1-23.9-11.2 2-21.5 7.8-29.1 16.5zM845 603.1h19.7c0-7.7 1.3-15.3 3.8-22.4-4.7-2.2-9.1-5-13.2-8.2-6.6 8.9-10.2 19.5-10.3 30.6zm12 33.2c3.9-2.9 8.1-5.3 12.6-7.3-2.8-6.8-4.4-14.1-4.8-21.6h-19.6c.8 10.7 4.9 20.7 11.8 28.9z"/></g><g id="&lt;Group>"><path id="&lt;Path>" class="s2" d="m274.7 418.2H116v-33.5h158.7z"/><g id="&lt;Clip Group>" clip-path="url(#cp1)"><path id="&lt;Path>" class="s13" d="m143.7 399.6c0 5.8-4.6 10.4-10.4 10.4-5.7.0-10.3-4.6-10.3-10.4.0-5.7 4.6-10.3 10.3-10.3 5.8.0 10.4 4.6 10.4 10.3z"/><g id="&lt;Group>"><path id="&lt;Path>" class="s2" d="m136.9 395.9c0 2-1.6 3.6-3.6 3.6s-3.6-1.6-3.6-3.6 1.6-3.6 3.6-3.6 3.6 1.6 3.6 3.6z"/><path id="&lt;Path>" class="s2" d="m140.5 410.1h-14.3v-4.4c0-3.3 2.7-6 6-6h2.3c3.3.0 6 2.7 6 6z"/></g></g><path id="&lt;Path>" class="s13" d="m254.3 394.8H148.7v-1.6h105.6z"/><path id="&lt;Path>" class="s13" d="m254.3 399.6H148.7V398h105.6z"/><path id="&lt;Path>" class="s13" d="m254.3 404.4H148.7v-1.6h105.6z"/><path id="&lt;Path>" class="s13" d="m254.3 409.2H148.7v-1.6h105.6z"/></g><g id="&lt;Group>"><path id="&lt;Path>" class="s2" d="m274.7 463.3H116v-33.5h158.7z"/><g id="&lt;Clip Group>" clip-path="url(#cp2)"><path id="&lt;Path>" class="s13" d="m143.7 444.7c0 5.7-4.6 10.4-10.4 10.4-5.7.0-10.3-4.7-10.3-10.4s4.6-10.3 10.3-10.3c5.8.0 10.4 4.6 10.4 10.3z"/><g id="&lt;Group>"><path id="&lt;Path>" class="s2" d="m136.9 440.9c0 2-1.6 3.7-3.6 3.7s-3.6-1.7-3.6-3.7c0-1.9 1.6-3.6 3.6-3.6s3.6 1.7 3.6 3.6z"/><path id="&lt;Path>" class="s2" d="m140.5 455.2h-14.3v-4.4c0-3.3 2.7-6 6-6h2.3c3.3.0 6 2.7 6 6z"/></g></g><path id="&lt;Path>" class="s13" d="m254.3 439.9H148.7v-1.6h105.6z"/><path id="&lt;Path>" class="s13" d="m254.3 444.7H148.7v-1.6h105.6z"/><path id="&lt;Path>" class="s13" d="m254.3 449.5H148.7v-1.6h105.6z"/><path id="&lt;Path>" class="s13" d="m254.3 454.3H148.7v-1.6h105.6z"/></g><g id="&lt;Group>"><path id="&lt;Path>" class="s13" d="m373.9 176.2c1.8 3.1-.5 7.1-4.1 7.1h-67.9-35.6-103.6H127 59.2c-3.7.0-6-4-4.2-7.1 6.8-12 19.7-20.1 34.4-20.1q.3.0.5.0c3.3-25.3 25-45 51.3-45 6 0 11.8 1.1 17.2 3 5-23.3 25.7-40.7 50.5-40.7 20.8.0 38.6 12.2 46.9 29.8 8.8-6.9 19.9-11.1 31.9-11.1 28.6.0 51.8 23.2 51.8 51.8.0 4.2-.5 8.3-1.5 12.3q.8-.1 1.5-.1c14.8.0 27.6 8.1 34.4 20.1z"/><g id="&lt;Group>"><path id="&lt;Path>" class="s2" d="m190.3 193.9v75.7H167v-75.7h-23.3l35-60.6 35 60.6z"/><path id="&lt;Path>" class="s10" d="m238.6 209v-75.7h23.3V209h23.4l-35 60.6-35-60.6z"/></g></g><g id="&lt;Group>" style="opacity: .5"><path id="&lt;Path>" class="s2" d="m1004.7 469.6H764.8V339.4h239.9z"/><path id="&lt;Path>" class="s8" d="m975.5 362.1H775.7v-9.4h199.8z"/><path id="&lt;Path>" class="s8" d="m915.4 377.3H775.7v-9.4h139.7z"/><path id="&lt;Path>" class="s8" d="m946.6 392.5H775.7v-9.4h170.9z"/><path id="&lt;Path>" class="s8" d="m975.5 407.7H775.7v-9.4h199.8z"/><path id="&lt;Path>" class="s8" d="m960.1 422.9H775.7v-9.4h184.4z"/><path id="&lt;Path>" class="s8" d="m939.6 438.1H775.7v-9.4h163.9z"/><path id="&lt;Path>" class="s8" d="m964 453.3H775.7v-9.4H964z"/></g><g id="&lt;Group>"><path id="&lt;Path>" class="s10" d="m229.2 659.9H74.8V570h154.4z"/><path id="&lt;Path>" class="s14" d="m74.8 659.9 77.2-50.5 77.2 50.5z"/><path id="&lt;Path>" class="s11" d="m229.2 570-77.2 62-77.2-62z"/></g><g id="&lt;Group>"><g id="&lt;Group>"><path id="&lt;Path>" class="s6" d="m540 92.5v81.6c0 5.1-4.1 9.2-9.2 9.2h-42c-5.1.0-9.2-4.1-9.2-9.2V92.5c0-5.1 4.1-9.2 9.2-9.2h42c5.1.0 9.2 4.1 9.2 9.2z"/><g id="&lt;Clip Group>" clip-path="url(#cp3)"><path id="&lt;Path>" class="s7" d="m535 95.7v68.1c0 4.3-3.5 7.7-7.7 7.7h-35c-4.3.0-7.7-3.4-7.7-7.7V95.7c0-4.2 3.4-7.6 7.7-7.6h35c4.2.0 7.7 3.4 7.7 7.6z"/><path id="&lt;Path>" class="s13" d="m474.3 152 56.8-76.4h13.6l-70.4 95.9z"/><path id="&lt;Path>" class="s13" d="m479.6 182.1 67.5-94v8.8l-67.5 95.9z"/></g><path id="&lt;Path>" class="s13" d="m512.7 176.8c0 1.6-1.3 3-2.9 3-1.6.0-3-1.4-3-3s1.4-3 3-3 2.9 1.4 2.9 3z"/></g><g id="&lt;Group>"><path id="&lt;Path>" class="s13" d="m607.8 167.7h-81v-61.6h81z"/><g id="&lt;Group>"><path id="&lt;Path>" class="s5" d="m551.9 154.8-17.5-17.5 17.7-17.7 3 3-14.8 14.7 14.5 14.5z"/></g><g id="&lt;Group>"><path id="&lt;Path>" class="s5" d="m581.8 154.8-2.9-3 14.7-14.7-14.5-14.5 3-3 17.4 17.5z"/></g><g id="&lt;Group>"><path id="&lt;Path>" class="s5" d="m562.5 154.1-3.9-1.6 12.8-30.8 3.9 1.6z"/></g><path id="&lt;Path>" class="s5" d="m526.8 98.9h81v7.2h-81z"/></g></g></g></g></svg>